<svg xmlns="http://www.w3.org/2000/svg" width="640" height="674" fill="none"><path fill="#92BFF8" d="M474.206 104.743h-82.821v6.101h82.821v-6.101Z"/><path fill="#92BFF8" d="M474.206 153.155a3.052 3.052 0 0 1-3.052-3.051V66.109a3.051 3.051 0 0 1 6.103 0v83.995a3.05 3.05 0 0 1-3.051 3.051Z"/><path fill="#fff" d="M410.885 134.959h35.566v-6.101h-35.566a3.05 3.05 0 1 0 0 6.101Z"/><path fill="#fff" d="m440.974 144.247 12.282-12.278-12.282-12.278"/><path fill="#92BFF8" d="M311.722 185.017h-6.103v92.232h6.103v-92.232Z"/><path fill="#fff" d="M283.876 228.182v-21.827h-6.103v21.827a3.053 3.053 0 0 0 5.21 2.157 3.052 3.052 0 0 0 .893-2.157Z"/><path fill="#fff" d="m293.108 211.831-12.283-12.278-12.283 12.278"/><path fill="#92BFF8" d="M242.237 592.166H76.717a36.87 36.87 0 0 1-26.03-10.788 36.842 36.842 0 0 1-10.802-26.016V364.447a36.859 36.859 0 0 1 10.801-26.022 36.886 36.886 0 0 1 26.032-10.797H203.71v6.101H76.718a30.766 30.766 0 0 0-21.72 9.006 30.742 30.742 0 0 0-9.01 21.712v190.915a30.73 30.73 0 0 0 9.01 21.707 30.753 30.753 0 0 0 21.72 8.996h165.519v6.101Z"/><path fill="#92BFF8" d="M242.237 632.783a3.05 3.05 0 0 1-3.051-3.05v-82.241a3.049 3.049 0 0 1 3.051-3.051 3.05 3.05 0 0 1 3.052 3.051v82.241a3.051 3.051 0 0 1-3.052 3.05Z"/><path fill="#fff" d="M149.361 560.029H96.294a20.133 20.133 0 0 1-14.231-5.892 20.115 20.115 0 0 1-5.895-14.226v-55.382h6.104v55.382a13.994 13.994 0 0 0 4.102 9.916 14.012 14.012 0 0 0 9.92 4.101h53.067a3.05 3.05 0 1 1 0 6.101Z"/><path fill="#fff" d="M91.503 490.005 79.22 477.727l-12.283 12.278M320.786 170.002c36.707-5.956 61.633-40.531 55.675-77.224-5.958-36.694-40.546-61.611-77.253-55.655-36.707 5.956-61.633 40.53-55.675 77.224 5.958 36.694 40.546 61.611 77.253 55.655Z"/><path fill="#92BFF8" d="m363.569 99.207 7.492-3.05c-1.022-5.11-.793-3.997-1.816-9.152h-8.071l-3.357-8.084 5.752-5.659-5.157-7.717-7.476 3.264-6.103-6.193 3.051-7.428-7.629-5.155-5.661 5.75-8.086-3.355v-8.069l-9.155-1.815-3.052 7.489h-8.682l-3.051-7.489-9.155 1.815v8.069l-8.087 3.355-5.661-5.75-7.72 5.155 3.143 7.428-6.195 6.193-7.431-3.142c-2.899 4.331-2.273 3.386-5.157 7.718l5.752 5.658-3.356 8.084h-8.072c-1.022 5.11-.793 3.996-1.816 9.151l7.492 3.05v8.634l-7.492 3.05c1.023 5.11.794 3.996 1.816 9.152h8.072c1.632 3.904 1.724 4.164 3.356 8.084l-5.752 5.658c2.884 4.332 2.258 3.386 5.157 7.718l7.431-3.142 6.195 6.192-3.143 7.428 7.72 5.156 5.661-5.751 8.087 3.356v8.069l9.155 1.815 3.051-7.489h8.697l3.052 7.489 9.155-1.815v-8.069l8.087-3.356 5.66 5.751 7.614-5.278-3.051-7.428c3.051-3.05 3.188-3.203 6.194-6.192l7.431 3.142 5.157-7.718-5.752-5.659c1.632-3.919 1.724-4.179 3.357-8.083h8.071c1.022-5.095.794-3.981 1.816-9.152l-7.492-3.05-.046-8.633Zm-53.571 51.645a47.306 47.306 0 0 1-43.699-29.189 47.265 47.265 0 0 1 10.253-51.528 47.314 47.314 0 0 1 72.775 7.165 47.272 47.272 0 0 1-5.883 59.703 47.308 47.308 0 0 1-33.446 13.849Z"/><path fill="#92BFF8" d="M309.998 188.098a84.569 84.569 0 0 1-46.97-14.243 84.52 84.52 0 0 1-31.139-37.929 84.485 84.485 0 0 1 18.327-92.102 84.573 84.573 0 0 1 92.136-18.32 84.537 84.537 0 0 1 37.943 31.127 84.49 84.49 0 0 1 14.248 46.953 84.6 84.6 0 0 1-24.794 59.729 84.663 84.663 0 0 1-59.751 24.785Zm0-162.927a78.464 78.464 0 0 0-43.58 13.215 78.422 78.422 0 0 0-28.89 35.191 78.376 78.376 0 0 0-4.464 45.305 78.4 78.4 0 0 0 21.468 40.149 78.466 78.466 0 0 0 85.485 16.997 78.434 78.434 0 0 0 35.203-28.88 78.387 78.387 0 0 0 13.22-43.564 78.49 78.49 0 0 0-22.991-55.439 78.548 78.548 0 0 0-55.451-23.004v.03Z"/><path fill="#fff" d="M45.774 218.74h13.733l4.196-12.095c3.982-1.662 5.965-2.532 9.963-4.194l11.352 5.521C89.84 203 89.87 203 94.692 198.043l-5.371-11.592c1.632-4.057 2.456-6.101 4.089-10.204l11.871-4.316v-13.987l-11.84-4.301c-1.633-4.088-2.457-6.101-4.09-10.204l5.371-11.622c-4.821-4.927-4.852-4.927-9.673-9.884l-11.353 5.506-9.993-4.225-4.197-12.08H45.775l-4.18 12.08c-3.998 1.693-6.012 2.532-9.964 4.225l-11.352-5.506c-4.837 4.957-4.867 4.957-9.689 9.884l5.386 11.622c-1.632 4.057-2.472 6.101-4.135 10.204L0 157.944v13.987l11.84 4.301c1.663 4.057 2.503 6.101 4.135 10.204l-5.386 11.591c4.822 4.958 4.852 4.957 9.689 9.93l11.352-5.522c3.952 1.663 5.966 2.532 9.963 4.195l4.181 12.11Zm-9.689-53.81a17.152 17.152 0 0 1 10.597-15.853 17.17 17.17 0 0 1 18.706 3.719 17.161 17.161 0 0 1 3.721 18.7 17.16 17.16 0 0 1-15.858 10.593 17.17 17.17 0 0 1-12.128-5.031A17.157 17.157 0 0 1 36.1 164.93h-.016ZM130.792 129.529l9.247-4.942-1.526-9.701c2.09-2.562 3.051-3.858 5.203-6.436l9.658-.366c1.45-5.095 1.526-5.11 2.945-10.204l-7.827-5.872c-.367-3.34-.55-5.034-.931-8.374L154 76.45l-5.081-9.426-9.536 1.373c-2.579-2.181-3.891-3.249-6.455-5.4l-.579-9.791-10.101-3.173-5.676 7.825-8.24.747-7.201-6.635-9.247 4.957 1.526 9.67c-2.09 2.578-3.143 3.874-5.203 6.452l-9.643.381c-1.526 5.094-1.526 5.094-2.96 10.174l7.827 5.902c.366 3.325.55 5.003.9 8.374l-6.423 7.184 5.05 9.426 9.552-1.373c2.594 2.135 3.906 3.249 6.47 5.399l.564 9.762c5.05 1.525 5.081 1.525 10.131 3.203l5.661-7.84c3.265-.305 4.943-.442 8.239-.762l7.217 6.65ZM97.85 100.427a20.996 20.996 0 0 1 2.273-23.226 21.008 21.008 0 0 1 22.335-6.79 21.007 21.007 0 0 1 14.823 18.029 21 21 0 0 1-10.99 20.589 21.01 21.01 0 0 1-16.003 1.588 21.02 21.02 0 0 1-12.438-10.19Z"/><path fill="#fff" d="M47.178 164.93a6.099 6.099 0 0 1 3.768-5.637 6.098 6.098 0 0 1 6.65 1.323 6.099 6.099 0 0 1-4.315 10.415 6.105 6.105 0 0 1-6.103-6.101ZM574.207 448.717h-13.732l-4.211 12.11-9.964 4.21-11.352-5.522c-4.821 4.957-4.852 4.957-9.673 9.93l5.37 11.576c-1.632 4.073-2.456 6.101-4.089 10.204l-11.84 4.301v13.987l11.84 4.301c1.633 4.103 2.457 6.101 4.089 10.204l-5.37 11.622c4.821 4.927 4.852 4.927 9.673 9.899l11.352-5.521 9.964 4.24 4.211 12.065h13.732l4.196-12.065c3.998-1.708 6.012-2.532 9.964-4.24l11.352 5.521c4.836-4.972 4.867-4.972 9.689-9.899l-5.387-11.622c1.633-4.057 2.472-6.101 4.135-10.204l11.841-4.301v-13.987l-11.841-4.301c-1.663-4.057-2.502-6.101-4.135-10.204l5.387-11.576c-4.822-4.973-4.853-4.973-9.689-9.93l-11.352 5.522-9.964-4.21-4.196-12.11Zm9.689 53.826a17.16 17.16 0 0 1-10.61 15.843 17.173 17.173 0 0 1-18.704-3.736 17.156 17.156 0 0 1 2.625-26.398 17.169 17.169 0 0 1 25.388 7.723 17.15 17.15 0 0 1 1.301 6.568ZM489.204 537.928l-9.246 4.957 1.526 9.686c-2.091 2.577-3.052 3.874-5.203 6.436l-9.658.381c-1.45 5.095-1.526 5.11-2.945 10.204l7.827 5.873c.366 3.325.549 5.033.931 8.358l-6.424 7.184 5.066 9.441 9.536-1.373 6.454 5.4.58 9.792 10.101 3.172 5.676-7.824 8.239-.748 7.202 6.635 9.262-4.957-1.526-9.67c2.09-2.593 3.143-3.874 5.203-6.452l9.643-.381c1.526-5.094 1.526-5.11 2.96-10.173l-7.827-5.903c-.366-3.325-.55-5.018-.9-8.374l6.423-7.184-5.02-9.441-9.551 1.373a768.773 768.773 0 0 1-6.47-5.384l-.564-9.762c-5.051-1.617-5.081-1.525-10.132-3.203l-5.66 7.825-8.24.762-7.263-6.65Zm32.943 29.102a20.993 20.993 0 0 1-2.273 23.226 21.02 21.02 0 0 1-10.137 6.781 21.023 21.023 0 0 1-22.345-6.759 20.999 20.999 0 0 1 6.314-31.85 21.03 21.03 0 0 1 28.441 8.602Z"/><path fill="#fff" d="M572.819 502.543a6.096 6.096 0 0 1-3.768 5.636 6.097 6.097 0 0 1-3.526.347 6.1 6.1 0 0 1 1.19-12.084 6.103 6.103 0 0 1 6.104 6.101Z"/><path fill="#0B4F95" d="M309.998 490.005c113.08 0 204.748-16.949 204.748-37.857 0-20.907-91.668-37.856-204.748-37.856-113.079 0-204.748 16.949-204.748 37.856 0 20.908 91.669 37.857 204.748 37.857Z" opacity=".53" style="mix-blend-mode:multiply"/><path fill="#84FFFF" d="M439.387 243.281H180.61c-5.149 0-9.323 4.173-9.323 9.32v153.897c0 5.147 4.174 9.319 9.323 9.319h258.777c5.149 0 9.322-4.172 9.322-9.319V252.601c0-5.147-4.173-9.32-9.322-9.32Z"/><path fill="#0B4F95" d="M430.797 253.516H189.215a6.117 6.117 0 0 0-6.118 6.116v139.865a6.117 6.117 0 0 0 6.118 6.116h241.582a6.117 6.117 0 0 0 6.118-6.116V259.632a6.117 6.117 0 0 0-6.118-6.116Z"/><path fill="#92BFF8" d="M157.875 447.298h304.246v2.791a20.54 20.54 0 0 1-12.687 18.982 20.568 20.568 0 0 1-7.865 1.563H178.428a20.555 20.555 0 0 1-14.533-6.017 20.544 20.544 0 0 1-6.02-14.528v-2.791Z"/><path fill="#0B4F95" d="M157.875 447.298h304.246v2.791a20.54 20.54 0 0 1-12.687 18.982 20.568 20.568 0 0 1-7.865 1.563H178.428a20.555 20.555 0 0 1-14.533-6.017 20.544 20.544 0 0 1-6.02-14.528v-2.791Z" opacity=".53" style="mix-blend-mode:multiply"/><path fill="#92BFF8" d="M440.913 415.832H179.084l-21.209 31.192h304.246l-21.208-31.192Z"/><path fill="#fff" d="M433.253 422.986H186.744l-10.727 14.993h267.962l-10.726-14.993Z"/><path fill="#0B4F95" d="M341.384 458.844h-62.772a11.548 11.548 0 0 1-11.55-11.546h85.873a11.548 11.548 0 0 1-11.551 11.546ZM318.344 247.217h-27.891c-.801 0-1.45.648-1.45 1.449v.015c0 .8.649 1.449 1.45 1.449h27.891a1.45 1.45 0 0 0 1.45-1.449v-.015c0-.801-.649-1.449-1.45-1.449ZM330.993 248.681a2.474 2.474 0 0 0-1.525-2.283 2.476 2.476 0 0 0-3.371 1.801 2.472 2.472 0 1 0 4.896.482ZM640 .737H518.592V288.14H640V.737Z"/><path fill="#84FFFF" d="M601.519.737H491.203V288.14h110.316V.737Z"/><path fill="#92BFF8" d="M593.844 9.675h-94.951v269.526h94.951V9.675ZM631.547 233.093h-19.393v34.943h19.393v-34.943Z"/><path fill="#84FFFF" d="M626.71 240.231h-9.704v20.682h9.704v-20.682Z"/><path fill="#92BFF8" d="M613.68 238.096h-28.563v1.525h28.563v-1.525ZM613.68 243.998h-28.563v1.526h28.563v-1.526ZM613.68 249.901h-28.563v1.525h28.563v-1.525ZM613.68 255.819h-28.563v1.525h28.563v-1.525ZM613.68 261.722h-28.563v1.525h28.563v-1.525Z"/><path fill="#0B4F95" d="M585.117 233.108h-77.359v34.943h77.359v-34.943Z"/><path fill="#84FFFF" d="M516.944 261.706a2.316 2.316 0 0 1-2.304-2.303v-17.677a2.317 2.317 0 0 1 2.304-2.303 2.303 2.303 0 0 1 2.288 2.303v17.662a2.304 2.304 0 0 1-1.408 2.137 2.297 2.297 0 0 1-.88.181ZM531.179 241.741a2.3 2.3 0 0 0-2.296-2.303 2.3 2.3 0 0 0-2.296 2.303v17.647a2.3 2.3 0 0 0 2.296 2.303 2.3 2.3 0 0 0 2.296-2.303v-17.647ZM540.823 261.706a2.303 2.303 0 0 1-2.289-2.303v-17.677a2.3 2.3 0 0 1 2.289-2.303c.307-.006.612.049.898.161a2.306 2.306 0 0 1 1.281 1.249c.121.282.184.586.186.893v17.662a2.327 2.327 0 0 1-.696 1.656 2.314 2.314 0 0 1-1.669.662ZM552.77 261.706a2.316 2.316 0 0 1-2.304-2.303v-17.677a2.317 2.317 0 0 1 2.304-2.303 2.303 2.303 0 0 1 2.288 2.303v17.662a2.304 2.304 0 0 1-1.408 2.137 2.297 2.297 0 0 1-.88.181ZM564.717 261.706a2.303 2.303 0 0 1-2.304-2.303v-17.677a2.303 2.303 0 0 1 2.304-2.303 2.303 2.303 0 0 1 2.288 2.303v17.662a2.304 2.304 0 0 1-1.408 2.137 2.297 2.297 0 0 1-.88.181ZM576.648 261.706a2.303 2.303 0 0 1-2.288-2.303v-17.677a2.3 2.3 0 0 1 2.288-2.303 2.32 2.32 0 0 1 2.304 2.303v17.662a2.32 2.32 0 0 1-2.304 2.318Z"/><path fill="#0B4F95" d="M585.117 189.761h-77.359v34.943h77.359v-34.943Z"/><path fill="#84FFFF" d="M516.944 218.359a2.305 2.305 0 0 1-2.304-2.288v-17.677a2.299 2.299 0 0 1 2.304-2.288 2.288 2.288 0 0 1 2.288 2.288v17.677a2.288 2.288 0 0 1-2.288 2.288ZM531.179 198.409a2.3 2.3 0 0 0-2.296-2.303 2.3 2.3 0 0 0-2.296 2.303v17.647a2.3 2.3 0 0 0 2.296 2.303 2.3 2.3 0 0 0 2.296-2.303v-17.647ZM575.565 196.106h-33.644a3.386 3.386 0 0 0-3.387 3.386v15.481a3.386 3.386 0 0 0 3.387 3.386h33.644a3.386 3.386 0 0 0 3.387-3.386v-15.481a3.386 3.386 0 0 0-3.387-3.386Z"/><path fill="#FE6C03" d="M550.161 207.225a3.733 3.733 0 0 0-2.312-3.454 3.736 3.736 0 0 0-3.492 6.568 3.736 3.736 0 0 0 2.081.623 3.725 3.725 0 0 0 3.723-3.737ZM562.474 207.225a3.74 3.74 0 0 0-2.308-3.453 3.742 3.742 0 0 0-5.097 2.724 3.737 3.737 0 0 0 6.31 3.371 3.736 3.736 0 0 0 1.095-2.642Z"/><path fill="#FEC303" d="M574.772 207.225a3.74 3.74 0 0 0-2.308-3.453 3.742 3.742 0 0 0-5.097 2.724 3.737 3.737 0 0 0 6.31 3.371 3.736 3.736 0 0 0 1.095-2.642Z"/><path fill="#0B4F95" d="M585.117 146.413h-77.359v34.944h77.359v-34.944Z"/><path fill="#84FFFF" d="M516.944 175.012a2.302 2.302 0 0 1-2.304-2.288v-17.663a2.32 2.32 0 0 1 2.304-2.303 2.307 2.307 0 0 1 2.288 2.303v17.663a2.287 2.287 0 0 1-2.288 2.288ZM531.179 155.061a2.3 2.3 0 0 0-2.296-2.303 2.3 2.3 0 0 0-2.296 2.303v17.647a2.3 2.3 0 0 0 2.296 2.304 2.3 2.3 0 0 0 2.296-2.304v-17.647ZM575.565 152.758h-33.644a3.386 3.386 0 0 0-3.387 3.386v15.481a3.386 3.386 0 0 0 3.387 3.387h33.644a3.386 3.386 0 0 0 3.387-3.387v-15.481a3.386 3.386 0 0 0-3.387-3.386Z"/><path fill="#FEC303" d="M546.437 167.614a3.722 3.722 0 1 0 0-7.443 3.722 3.722 0 1 0 0 7.443Z"/><path fill="#FE6C03" d="M558.735 167.614a3.722 3.722 0 1 0 .003-7.443 3.722 3.722 0 0 0-.003 7.443Z"/><path fill="#FEC303" d="M571.034 167.614a3.721 3.721 0 1 0 0-7.443 3.721 3.721 0 1 0 0 7.443Z"/><path fill="#0B4F95" d="M585.117 103.081h-77.359v34.943h77.359v-34.943Z"/><path fill="#84FFFF" d="M516.944 131.679a2.32 2.32 0 0 1-2.304-2.303v-17.662a2.303 2.303 0 0 1 2.304-2.288 2.288 2.288 0 0 1 2.288 2.288v17.662a2.3 2.3 0 0 1-2.288 2.303ZM531.179 111.729a2.3 2.3 0 0 0-2.296-2.303 2.3 2.3 0 0 0-2.296 2.303v17.647a2.3 2.3 0 0 0 2.296 2.303 2.3 2.3 0 0 0 2.296-2.303v-17.647ZM575.565 109.426h-33.644a3.386 3.386 0 0 0-3.387 3.386v15.481a3.386 3.386 0 0 0 3.387 3.386h33.644a3.386 3.386 0 0 0 3.387-3.386v-15.481a3.386 3.386 0 0 0-3.387-3.386Z"/><path fill="#FE6C03" d="M550.161 120.545a3.733 3.733 0 0 0-2.312-3.454 3.743 3.743 0 0 0-5.095 2.734 3.737 3.737 0 0 0 3.684 4.457 3.725 3.725 0 0 0 3.723-3.737Z"/><path fill="#FEC303" d="M562.474 120.545a3.74 3.74 0 0 0-2.308-3.452 3.74 3.74 0 0 0-5.097 2.723 3.737 3.737 0 0 0 6.31 3.371 3.734 3.734 0 0 0 1.095-2.642ZM574.772 120.545a3.74 3.74 0 0 0-2.308-3.452 3.74 3.74 0 0 0-5.097 2.723 3.737 3.737 0 0 0 6.31 3.371 3.734 3.734 0 0 0 1.095-2.642Z"/><path fill="#0B4F95" d="M585.117 19.513h-77.359v75.164h77.359V19.513Z"/><path fill="#84FFFF" d="M524.649 19.513H514.64v75.164h10.009V19.513ZM542.226 19.513h-10.009v75.164h10.009V19.513ZM559.804 19.513h-10.01v75.164h10.01V19.513ZM577.381 19.513h-10.009v75.164h10.009V19.513Z"/><path fill="#FEC303" d="M577.396 25.492h-10.085v6.558h10.085v-6.558ZM577.396 36.779h-10.085v6.558h10.085V36.78ZM577.396 48.065h-10.085v6.559h10.085v-6.559ZM577.396 59.352h-10.085v6.559h10.085v-6.559Z"/><path fill="#FE6C03" d="M577.396 70.639h-10.085v6.559h10.085v-6.559Z"/><path fill="#FEC303" d="M577.396 81.926h-10.085v6.558h10.085v-6.558Z"/><path fill="#84FFFF" d="M342.834 514.455h-65.793c-5.056 0-9.155 4.097-9.155 9.151v140.506c0 5.054 4.099 9.151 9.155 9.151h65.793c5.056 0 9.154-4.097 9.154-9.151V523.606c0-5.054-4.098-9.151-9.154-9.151Z"/><path fill="#0B4F95" d="M341.933 520.708h-63.977a3.738 3.738 0 0 0-3.738 3.737v138.828a3.738 3.738 0 0 0 3.738 3.737h63.977a3.738 3.738 0 0 0 3.739-3.737V524.445a3.738 3.738 0 0 0-3.739-3.737Z"/><path fill="#84FFFF" d="M268.283 532.773h-.565a2.914 2.914 0 0 0-2.914 2.913v14.46a2.914 2.914 0 0 0 2.914 2.913h.565a2.914 2.914 0 0 0 2.914-2.913v-14.46a2.914 2.914 0 0 0-2.914-2.913ZM352.278 532.773h-.564a2.913 2.913 0 0 0-2.914 2.913v14.46a2.914 2.914 0 0 0 2.914 2.913h.564a2.914 2.914 0 0 0 2.915-2.913v-14.46a2.914 2.914 0 0 0-2.915-2.913ZM268.283 556.384h-.565a2.914 2.914 0 0 0-2.914 2.913v14.459a2.914 2.914 0 0 0 2.914 2.913h.565a2.914 2.914 0 0 0 2.914-2.913v-14.459a2.914 2.914 0 0 0-2.914-2.913Z"/><path fill="#008BD9" d="M317.521 516.605h-15.167c-.615 0-1.114.499-1.114 1.114v.213c0 .615.499 1.114 1.114 1.114h15.167c.615 0 1.113-.499 1.113-1.114v-.213c0-.615-.498-1.114-1.113-1.114Z"/><path fill="#0B4F95" d="M299.209 560.236c8.908-1.446 14.958-9.836 13.511-18.742-1.446-8.905-9.84-14.952-18.748-13.507-8.909 1.446-14.958 9.837-13.512 18.742 1.446 8.905 9.84 14.953 18.749 13.507Z" opacity=".53" style="mix-blend-mode:multiply"/><path fill="#FEC303" d="M306.024 553.585c5.22-5.218 5.22-13.678 0-18.896-5.219-5.218-13.682-5.218-18.902 0-5.22 5.218-5.22 13.678 0 18.896 5.22 5.217 13.683 5.217 18.902 0Z"/><path fill="#84FFFF" d="M335.83 536.342h-17.196a1.525 1.525 0 0 1 0-3.05h17.196a1.525 1.525 0 1 1 0 3.05ZM328.766 545.661h-10.132c-.404 0-.792-.16-1.078-.447a1.521 1.521 0 0 1 0-2.157 1.524 1.524 0 0 1 1.078-.446h10.132a1.527 1.527 0 0 1 1.526 1.525 1.525 1.525 0 0 1-1.526 1.525Z"/><path fill="#0B4F95" d="M335.907 564.849h-52.641a3.035 3.035 0 0 0-3.036 3.035v28.995a3.035 3.035 0 0 0 3.036 3.035h52.641a3.036 3.036 0 0 0 3.036-3.035v-28.995a3.036 3.036 0 0 0-3.036-3.035ZM335.907 605.969h-52.641a3.036 3.036 0 0 0-3.036 3.036v13.483a3.035 3.035 0 0 0 3.036 3.035h52.641a3.036 3.036 0 0 0 3.036-3.035v-13.483a3.036 3.036 0 0 0-3.036-3.036Z" opacity=".53" style="mix-blend-mode:multiply"/><path fill="#0B4F95" d="M296.571 535.122a6.665 6.665 0 0 0-6.668 6.665c0 5.811 6.668 12.309 6.668 12.309s6.668-6.498 6.668-12.309a6.665 6.665 0 0 0-6.668-6.665Zm0 10.585a3.918 3.918 0 0 1-3.623-2.42 3.928 3.928 0 0 1-.223-2.265 3.928 3.928 0 0 1 3.081-3.08 3.924 3.924 0 0 1 4.687 3.845 3.92 3.92 0 0 1-3.922 3.92Z"/><path fill="#84FFFF" d="M333.069 575.388h-46.507a1.525 1.525 0 1 1 0-3.05h46.507a1.524 1.524 0 1 1 0 3.05ZM333.069 583.533h-46.507a1.526 1.526 0 0 1 0-3.05h46.507a1.524 1.524 0 1 1 0 3.05ZM302.11 591.678h-15.563a1.526 1.526 0 0 1 0-3.051h15.563a1.526 1.526 0 0 1 0 3.051ZM292.543 610.637h-6.027a2.104 2.104 0 0 0-2.105 2.105v6.024c0 1.163.942 2.105 2.105 2.105h6.027a2.105 2.105 0 0 0 2.106-2.105v-6.024a2.105 2.105 0 0 0-2.106-2.105ZM306.077 610.637h-6.027a2.105 2.105 0 0 0-2.106 2.105v6.024c0 1.163.943 2.105 2.106 2.105h6.027a2.105 2.105 0 0 0 2.106-2.105v-6.024a2.105 2.105 0 0 0-2.106-2.105ZM319.626 610.637h-6.027a2.104 2.104 0 0 0-2.105 2.105v6.024c0 1.163.942 2.105 2.105 2.105h6.027a2.105 2.105 0 0 0 2.106-2.105v-6.024a2.105 2.105 0 0 0-2.106-2.105ZM333.16 610.637h-6.027a2.105 2.105 0 0 0-2.106 2.105v6.024c0 1.163.943 2.105 2.106 2.105h6.027a2.105 2.105 0 0 0 2.106-2.105v-6.024a2.105 2.105 0 0 0-2.106-2.105Z"/><path fill="#0B4F95" d="M335.83 638.289h-52.625a1.691 1.691 0 0 1-1.289-.428 1.68 1.68 0 0 1-.406-1.921 1.687 1.687 0 0 1 1.005-.913c.222-.074.457-.1.69-.078h52.625a1.681 1.681 0 0 1 1.695.991 1.671 1.671 0 0 1 0 1.358 1.68 1.68 0 0 1-1.695.991ZM318.634 647.746h-35.429a1.681 1.681 0 0 1-1.695-.991 1.688 1.688 0 0 1 0-1.358 1.68 1.68 0 0 1 1.695-.991h35.429a1.683 1.683 0 0 1 1.839 1.67 1.672 1.672 0 0 1-.55 1.241 1.67 1.67 0 0 1-1.289.429ZM300.248 657.492h-17.043a1.681 1.681 0 0 1-1.695-.991 1.688 1.688 0 0 1 0-1.358 1.69 1.69 0 0 1 .406-.563 1.691 1.691 0 0 1 1.289-.428h17.043a1.681 1.681 0 0 1 1.695.991 1.672 1.672 0 0 1-.406 1.921 1.683 1.683 0 0 1-1.289.428ZM242.008 264.925h-45.82a3.981 3.981 0 0 0-3.982 3.981v19.462a3.982 3.982 0 0 0 3.982 3.981h45.82c2.2 0 3.983-1.783 3.983-3.981v-19.462a3.982 3.982 0 0 0-3.983-3.981ZM215.658 298.373h-19.47a3.982 3.982 0 0 0-3.982 3.981v19.462a3.981 3.981 0 0 0 3.982 3.981h19.47a3.981 3.981 0 0 0 3.982-3.981v-19.462a3.982 3.982 0 0 0-3.982-3.981Z" opacity=".53" style="mix-blend-mode:multiply"/><path fill="#84FFFF" d="M205.984 321.115a9.033 9.033 0 0 1-8.859-10.791 9.028 9.028 0 0 1 7.097-7.095 9.034 9.034 0 0 1 10.795 8.856 9.045 9.045 0 0 1-9.033 9.03Zm0-16.534a7.508 7.508 0 0 0-7.363 8.968 7.509 7.509 0 0 0 13.605 2.705 7.501 7.501 0 0 0-.934-9.475 7.51 7.51 0 0 0-5.308-2.198Z"/><path fill="#84FFFF" d="M205.984 315.837a3.77 3.77 0 0 1-3.494-2.318 3.767 3.767 0 0 1 4.928-4.927 3.772 3.772 0 0 1 1.22 6.146 3.753 3.753 0 0 1-2.654 1.099Zm0-5.994a2.24 2.24 0 0 0-2.083 1.374 2.238 2.238 0 0 0 .476 2.448 2.246 2.246 0 0 0 3.456-.333c.247-.369.379-.803.379-1.247a2.23 2.23 0 0 0-1.372-2.071 2.224 2.224 0 0 0-.856-.171Z"/><path fill="#0B4F95" d="M215.658 332.981h-19.47a3.981 3.981 0 0 0-3.982 3.981v54.055a3.982 3.982 0 0 0 3.982 3.981h19.47a3.982 3.982 0 0 0 3.982-3.981v-54.055a3.981 3.981 0 0 0-3.982-3.981Z" opacity=".53" style="mix-blend-mode:multiply"/><path fill="#84FFFF" d="M239.628 273.878h-41.273a1.526 1.526 0 0 1 0-3.051h41.334a1.526 1.526 0 0 1 0 3.051h-.061ZM216.1 282.557h-17.745a1.526 1.526 0 0 1 0-3.051h17.806a1.526 1.526 0 0 1 0 3.051h-.061Z"/><path fill="#FEC303" d="M204.641 343.322a4.18 4.18 0 1 1-8.359.001 4.18 4.18 0 0 1 8.359-.001Z"/><path fill="#84FFFF" d="M213.949 354.762h-16.143a1.526 1.526 0 0 1 0-3.051h16.143a1.528 1.528 0 0 1 1.526 1.525 1.526 1.526 0 0 1-1.526 1.526ZM213.949 362.739h-16.143a1.526 1.526 0 0 1 0-3.051h16.143a1.528 1.528 0 0 1 1.526 1.525 1.526 1.526 0 0 1-1.526 1.526ZM209.371 370.7h-11.565a1.525 1.525 0 1 1 0-3.05h11.565a1.526 1.526 0 0 1 0 3.05Z"/><path fill="#0B4F95" d="M234.7 382.14h-7.202a2.822 2.822 0 0 0-2.823 2.821v7.2a2.822 2.822 0 0 0 2.823 2.821h7.202a2.821 2.821 0 0 0 2.822-2.821v-7.2a2.821 2.821 0 0 0-2.822-2.821ZM252.689 382.14h-7.202a2.822 2.822 0 0 0-2.823 2.821v7.2a2.822 2.822 0 0 0 2.823 2.821h7.202a2.822 2.822 0 0 0 2.823-2.821v-7.2a2.822 2.822 0 0 0-2.823-2.821ZM377.988 292.349h45.82c2.2 0 3.983-1.783 3.983-3.981v-19.462a3.982 3.982 0 0 0-3.983-3.981h-45.82a3.981 3.981 0 0 0-3.982 3.981v19.462a3.982 3.982 0 0 0 3.982 3.981ZM404.339 394.998h19.469c2.2 0 3.983-1.783 3.983-3.981v-54.055a3.982 3.982 0 0 0-3.983-3.981h-19.469a3.981 3.981 0 0 0-3.982 3.981v54.055a3.982 3.982 0 0 0 3.982 3.981Z" opacity=".53" style="mix-blend-mode:multiply"/><path fill="#84FFFF" d="M421.703 273.878h-41.334a1.526 1.526 0 0 1 0-3.051h41.334a1.53 1.53 0 0 1 1.526 1.526 1.525 1.525 0 0 1-1.526 1.525ZM421.703 282.557h-17.806a1.526 1.526 0 0 1 0-3.051h17.806a1.53 1.53 0 0 1 1.526 1.525 1.526 1.526 0 0 1-1.526 1.526Z"/><path fill="#FEC303" d="M415.355 343.322a4.177 4.177 0 0 0 4.997 4.099 4.171 4.171 0 0 0 2.14-1.144 4.172 4.172 0 0 0 .906-4.554 4.182 4.182 0 0 0-8.043 1.599Z"/><path fill="#84FFFF" d="M422.191 354.762h-16.143a1.526 1.526 0 0 1 0-3.051h16.143a1.526 1.526 0 0 1 0 3.051ZM422.191 362.739h-16.143a1.526 1.526 0 0 1 0-3.051h16.143a1.526 1.526 0 0 1 0 3.051ZM422.191 370.7H410.61a1.525 1.525 0 1 1 0-3.05h11.581a1.526 1.526 0 0 1 0 3.05Z"/><path fill="#0B4F95" d="M385.297 394.998h7.202a2.822 2.822 0 0 0 2.822-2.822v-7.199a2.821 2.821 0 0 0-2.822-2.822h-7.202a2.822 2.822 0 0 0-2.823 2.822v7.199a2.823 2.823 0 0 0 2.823 2.822ZM367.308 394.998h7.201a2.823 2.823 0 0 0 2.823-2.822v-7.199a2.822 2.822 0 0 0-2.823-2.822h-7.201a2.822 2.822 0 0 0-2.823 2.822v7.199a2.823 2.823 0 0 0 2.823 2.822ZM417.766 327.353h7.202a2.822 2.822 0 0 0 2.823-2.822v-7.199a2.823 2.823 0 0 0-2.823-2.822h-7.202a2.823 2.823 0 0 0-2.823 2.822v7.199a2.822 2.822 0 0 0 2.823 2.822ZM399.792 327.353h7.202a2.822 2.822 0 0 0 2.823-2.822v-7.199a2.823 2.823 0 0 0-2.823-2.822h-7.202a2.823 2.823 0 0 0-2.823 2.822v7.199a2.822 2.822 0 0 0 2.823 2.822ZM417.766 310.24h7.202a2.823 2.823 0 0 0 2.823-2.822v-7.199a2.822 2.822 0 0 0-2.823-2.822h-7.202a2.822 2.822 0 0 0-2.823 2.822v7.199a2.823 2.823 0 0 0 2.823 2.822ZM399.792 310.24h7.202a2.823 2.823 0 0 0 2.823-2.822v-7.199a2.822 2.822 0 0 0-2.823-2.822h-7.202a2.822 2.822 0 0 0-2.823 2.822v7.199a2.823 2.823 0 0 0 2.823 2.822ZM382.032 327.353h7.202a2.822 2.822 0 0 0 2.822-2.822v-7.199a2.823 2.823 0 0 0-2.822-2.822h-7.202a2.823 2.823 0 0 0-2.823 2.822v7.199a2.822 2.822 0 0 0 2.823 2.822ZM382.032 310.24h7.202a2.823 2.823 0 0 0 2.822-2.822v-7.199a2.822 2.822 0 0 0-2.822-2.822h-7.202a2.822 2.822 0 0 0-2.823 2.822v7.199a2.823 2.823 0 0 0 2.823 2.822ZM309.998 390.3c33.556 0 60.758-27.192 60.758-60.735 0-33.544-27.202-60.736-60.758-60.736-33.555 0-60.757 27.192-60.757 60.736 0 33.543 27.202 60.735 60.757 60.735Z" opacity=".53" style="mix-blend-mode:multiply"/><path fill="#84FFFF" d="M309.998 385.678a56.168 56.168 0 0 1-31.184-9.482 56.114 56.114 0 0 1-8.452-86.357 56.163 56.163 0 0 1 86.379 8.543 56.114 56.114 0 0 1 9.453 31.183 56.165 56.165 0 0 1-16.481 39.682 56.208 56.208 0 0 1-39.715 16.431Zm0-110.717a54.616 54.616 0 0 0-50.433 33.739 54.587 54.587 0 0 0 11.87 59.491 54.63 54.63 0 0 0 27.969 14.931 54.628 54.628 0 0 0 56.061-23.226 54.592 54.592 0 0 0 9.203-30.331 54.637 54.637 0 0 0-16.029-38.614 54.677 54.677 0 0 0-38.641-15.99Z"/><path fill="#FE6C03" d="M336.486 369.267a47.756 47.756 0 0 1-59.79-5.547 47.717 47.717 0 0 1-14.136-39.349 47.72 47.72 0 0 1 22.289-35.378 47.767 47.767 0 0 1 20.312-6.925l.916 9.152a38.592 38.592 0 0 0-34.172 31.852 38.586 38.586 0 0 0 21.561 41.436 38.617 38.617 0 0 0 45.708-9.681 38.58 38.58 0 0 0 2.897-46.616l7.629-5.079a47.754 47.754 0 0 1 7.061 35.796 47.767 47.767 0 0 1-20.275 30.339Z"/><path fill="#FEC303" d="M337.57 302.644a38.261 38.261 0 0 0-17.349-10.28 38.657 38.657 0 0 0-6.561-1.205l.855-9.152c2.751.266 5.472.776 8.132 1.526a47.5 47.5 0 0 1 21.499 12.751l-6.576 6.36Z"/><path fill="#0B4F95" d="M330.395 338.008c4.666-11.262-.684-24.172-11.949-28.837-11.266-4.664-24.181.684-28.847 11.945-4.666 11.261.683 24.171 11.949 28.836 11.265 4.665 24.18-.683 28.847-11.944Z" opacity=".53" style="mix-blend-mode:multiply"/><path fill="#84FFFF" d="M309.998 340.318c5.941 0 10.757-4.815 10.757-10.753 0-5.939-4.816-10.753-10.757-10.753s-10.757 4.814-10.757 10.753c0 5.938 4.816 10.753 10.757 10.753Z"/><path fill="#84FFFF" d="m289.995 352.153-1.114-1.052 20.065-21.536-20.492-21.552 1.099-1.053 21.498 22.589-21.056 22.604Z"/><path fill="#84FFFF" d="M293.565 307.952a4.136 4.136 0 0 0-2.552-3.819 4.131 4.131 0 0 0-4.506.896 4.133 4.133 0 1 0 5.847 5.846 4.133 4.133 0 0 0 1.211-2.923ZM344.314 329.565a4.134 4.134 0 1 0-8.268.002 4.134 4.134 0 0 0 8.268-.002ZM293.565 351.62a4.136 4.136 0 0 0-2.552-3.819 4.131 4.131 0 0 0-4.506.896 4.13 4.13 0 0 0 .626 6.359c.68.455 1.48.697 2.297.697a4.118 4.118 0 0 0 4.135-4.133Z"/><path fill="#84FFFF" d="M340.179 328.802h-30.181v1.525h30.181v-1.525Z"/><path fill="#FE6C03" d="M233.708 375.947a2.607 2.607 0 0 0-3.109-2.575 2.614 2.614 0 0 0-2.058 2.045 2.61 2.61 0 1 0 5.167.53ZM233.708 366.582a2.607 2.607 0 0 0-3.109-2.575 2.614 2.614 0 0 0-1.34.71 2.614 2.614 0 0 0-.572 2.845 2.611 2.611 0 0 0 4.251.855 2.61 2.61 0 0 0 .77-1.835ZM233.708 357.156a2.607 2.607 0 0 0-3.109-2.575 2.61 2.61 0 0 0-.951 4.728 2.61 2.61 0 0 0 4.06-2.153ZM233.708 347.73a2.607 2.607 0 0 0-3.109-2.575 2.614 2.614 0 0 0-2.058 2.045 2.61 2.61 0 1 0 5.167.53ZM233.708 338.304a2.6 2.6 0 0 0-.687-1.971 2.62 2.62 0 0 0-1.915-.836 2.605 2.605 0 0 0-2.463 1.75 2.605 2.605 0 0 0 2.463 3.466 2.606 2.606 0 0 0 2.602-2.409Z"/></svg>